<svg width="24" height="25" viewBox="0 0 24 25" fill="none" xmlns="http://www.w3.org/2000/svg">
<rect x="0.5" y="1.12494" width="23" height="23" rx="11.5" stroke="#0C0C0C"/>
<g clip-path="url(#clip0_20_654)">
<path d="M19.75 10.4174C19.7504 10.2532 19.7183 10.0906 19.6554 9.93886C19.5926 9.78716 19.5002 9.64945 19.3838 9.53369L15.0913 5.24056C14.9752 5.12444 14.8373 5.03232 14.6857 4.96947C14.534 4.90662 14.3714 4.87427 14.2072 4.87427C14.043 4.87427 13.8804 4.90662 13.7287 4.96947C13.577 5.03232 13.4392 5.12444 13.3231 5.24056L11.5844 6.97931L8.00688 8.32119C7.80143 8.39817 7.61986 8.52788 7.48042 8.69727C7.34097 8.86666 7.24858 9.06977 7.2125 9.28619L5.76 17.9999C5.74182 18.1075 5.74732 18.2178 5.77614 18.323C5.80496 18.4283 5.85639 18.5259 5.92685 18.6092C5.99731 18.6926 6.08509 18.7595 6.18409 18.8054C6.28308 18.8513 6.39089 18.875 6.5 18.8749C6.54188 18.8751 6.58369 18.8718 6.625 18.8649L15.3406 17.4118C15.5568 17.3754 15.7597 17.2829 15.929 17.1436C16.0983 17.0044 16.2282 16.8232 16.3056 16.6181L17.6469 13.0399L19.3856 11.3012C19.5018 11.1853 19.5938 11.0475 19.6563 10.8958C19.7189 10.7441 19.7507 10.5815 19.75 10.4174ZM14.95 15.9562L8.6875 16.9999L10.75 14.9374C11.2033 15.1421 11.714 15.1812 12.1932 15.0481C12.6724 14.9149 13.0897 14.6179 13.3725 14.2088C13.6552 13.7996 13.7855 13.3042 13.7406 12.8089C13.6958 12.3136 13.4786 11.8497 13.1269 11.498C12.7752 11.1464 12.3113 10.9292 11.816 10.8843C11.3207 10.8394 10.8253 10.9697 10.4162 11.2525C10.007 11.5352 9.71003 11.9525 9.57688 12.4317C9.44373 12.9109 9.48287 13.4216 9.6875 13.8749L7.625 15.9374L8.66875 9.67494L11.8125 8.49619L16.1281 12.8124L14.95 15.9562ZM11 12.9999C11 12.8763 11.0367 12.7555 11.1053 12.6527C11.174 12.5499 11.2716 12.4698 11.3858 12.4225C11.5 12.3752 11.6257 12.3628 11.7469 12.3869C11.8682 12.4111 11.9795 12.4706 12.0669 12.558C12.1544 12.6454 12.2139 12.7568 12.238 12.878C12.2621 12.9992 12.2497 13.1249 12.2024 13.2391C12.1551 13.3533 12.075 13.4509 11.9722 13.5196C11.8695 13.5883 11.7486 13.6249 11.625 13.6249C11.4592 13.6249 11.3003 13.5591 11.1831 13.4419C11.0658 13.3247 11 13.1657 11 12.9999ZM17 11.5624L13.0625 7.62494L14.2088 6.47869L18.1463 10.4162L17 11.5624Z" fill="#0C0C0C"/>
</g>
<defs>
<clipPath id="clip0_20_654">
<rect width="16" height="16" fill="white" transform="translate(4 4.62494)"/>
</clipPath>
</defs>
</svg>
