<svg width="24" height="25" viewBox="0 0 24 25" fill="none" xmlns="http://www.w3.org/2000/svg">
<rect x="0.5" y="1.12494" width="23" height="23" rx="11.5" stroke="#0C0C0C"/>
<path d="M13.5 11.8749H12.75V8.37494H13C13.4641 8.37494 13.9092 8.55931 14.2374 8.8875C14.5656 9.21569 14.75 9.66081 14.75 10.1249C14.75 10.3239 14.829 10.5146 14.9697 10.6553C15.1103 10.7959 15.3011 10.8749 15.5 10.8749C15.6989 10.8749 15.8897 10.7959 16.0303 10.6553C16.171 10.5146 16.25 10.3239 16.25 10.1249C16.249 9.26329 15.9063 8.43722 15.297 7.82794C14.6877 7.21866 13.8616 6.87593 13 6.87494H12.75V6.12494C12.75 5.92603 12.671 5.73526 12.5303 5.59461C12.3897 5.45396 12.1989 5.37494 12 5.37494C11.8011 5.37494 11.6103 5.45396 11.4697 5.59461C11.329 5.73526 11.25 5.92603 11.25 6.12494V6.87494H11C10.138 6.87494 9.3114 7.21735 8.7019 7.82684C8.09241 8.43634 7.75 9.26299 7.75 10.1249C7.75 10.9869 8.09241 11.8135 8.7019 12.423C9.3114 13.0325 10.138 13.3749 11 13.3749H11.25V16.8749H10.5C10.0359 16.8749 9.59075 16.6906 9.26256 16.3624C8.93437 16.0342 8.75 15.5891 8.75 15.1249C8.75 14.926 8.67098 14.7353 8.53033 14.5946C8.38968 14.454 8.19891 14.3749 8 14.3749C7.80109 14.3749 7.61032 14.454 7.46967 14.5946C7.32902 14.7353 7.25 14.926 7.25 15.1249C7.25099 15.9866 7.59372 16.8127 8.203 17.4219C8.81228 18.0312 9.63835 18.3739 10.5 18.3749H11.25V19.1249C11.25 19.3239 11.329 19.5146 11.4697 19.6553C11.6103 19.7959 11.8011 19.8749 12 19.8749C12.1989 19.8749 12.3897 19.7959 12.5303 19.6553C12.671 19.5146 12.75 19.3239 12.75 19.1249V18.3749H13.5C14.362 18.3749 15.1886 18.0325 15.7981 17.423C16.4076 16.8135 16.75 15.9869 16.75 15.1249C16.75 14.263 16.4076 13.4363 15.7981 12.8268C15.1886 12.2173 14.362 11.8749 13.5 11.8749ZM11 11.8749C10.5359 11.8749 10.0908 11.6906 9.76256 11.3624C9.43437 11.0342 9.25 10.5891 9.25 10.1249C9.25 9.66081 9.43437 9.21569 9.76256 8.8875C10.0908 8.55931 10.5359 8.37494 11 8.37494H11.25V11.8749H11ZM13.5 16.8749H12.75V13.3749H13.5C13.9641 13.3749 14.4092 13.5593 14.7374 13.8875C15.0656 14.2157 15.25 14.6608 15.25 15.1249C15.25 15.5891 15.0656 16.0342 14.7374 16.3624C14.4092 16.6906 13.9641 16.8749 13.5 16.8749Z" fill="#0C0C0C"/>
</svg>
