<svg width="24" height="25" viewBox="0 0 24 25" fill="none" xmlns="http://www.w3.org/2000/svg">
<rect x="0.5" y="1.12494" width="23" height="23" rx="11.5" stroke="#0C0C0C"/>
<path d="M8.48492 13.8749H5.98117C5.78226 13.8749 5.59149 13.7959 5.45084 13.6553C5.31019 13.5146 5.23117 13.3239 5.23117 13.1249C5.23117 12.926 5.31019 12.7353 5.45084 12.5946C5.59149 12.454 5.78226 12.3749 5.98117 12.3749H8.08305L8.86117 11.2087C8.92958 11.1056 9.02246 11.021 9.13151 10.9624C9.24056 10.9039 9.36241 10.8733 9.48617 10.8733C9.60994 10.8733 9.73178 10.9039 9.84083 10.9624C9.94988 11.021 10.0428 11.1056 10.1112 11.2087L11.4862 13.2712L11.8612 12.7087C11.9298 12.6059 12.0227 12.5216 12.1318 12.4634C12.2408 12.4051 12.3626 12.3748 12.4862 12.3749H13.9862C14.1851 12.3749 14.3758 12.454 14.5165 12.5946C14.6572 12.7353 14.7362 12.926 14.7362 13.1249C14.7362 13.3239 14.6572 13.5146 14.5165 13.6553C14.3758 13.7959 14.1851 13.8749 13.9862 13.8749H12.8862L12.1074 15.0412C12.039 15.1443 11.9461 15.2289 11.8371 15.2875C11.728 15.346 11.6062 15.3766 11.4824 15.3766C11.3587 15.3766 11.2368 15.346 11.1278 15.2875C11.0187 15.2289 10.9258 15.1443 10.8574 15.0412L9.48242 12.9787L9.10742 13.5412C9.03905 13.6437 8.94649 13.7277 8.83792 13.7859C8.72935 13.8441 8.60811 13.8747 8.48492 13.8749ZM15.1193 6.87494C13.8618 6.87494 12.7443 7.37057 11.9899 8.22244C11.2337 7.37057 10.118 6.87494 8.85992 6.87494C7.84407 6.87345 6.8634 7.24685 6.1058 7.9236C5.3482 8.60036 4.86696 9.53286 4.7543 10.5424C4.73242 10.7408 4.79022 10.9397 4.91499 11.0954C5.03976 11.2511 5.22128 11.3509 5.41961 11.3728C5.61794 11.3946 5.81684 11.3368 5.97255 11.2121C6.12827 11.0873 6.22804 10.9058 6.24992 10.7074C6.32188 10.0657 6.62787 9.47297 7.10939 9.04266C7.5909 8.61234 8.21414 8.37461 8.85992 8.37494C9.9743 8.37494 10.9068 8.96244 11.2943 9.90869C11.3503 10.0472 11.4464 10.1659 11.5703 10.2494C11.6942 10.3329 11.8402 10.3776 11.9896 10.3776C12.139 10.3776 12.285 10.3329 12.4089 10.2494C12.5328 10.1659 12.6289 10.0472 12.6849 9.90869C13.0724 8.96244 14.0049 8.37494 15.1193 8.37494C15.8161 8.37478 16.4844 8.65111 16.9776 9.14326C17.4708 9.63542 17.7486 10.3032 17.7499 10.9999C17.7499 12.8387 16.1337 14.6106 14.7774 15.7724C13.9055 16.5114 12.9736 17.1764 11.9912 17.7606C11.3118 17.3574 9.78055 16.3856 8.4593 15.0899C8.38904 15.0208 8.30586 14.9662 8.2145 14.9293C8.12315 14.8923 8.0254 14.8737 7.92686 14.8745C7.82831 14.8753 7.73089 14.8956 7.64016 14.934C7.54942 14.9725 7.46715 15.0284 7.39805 15.0987C7.32894 15.169 7.27434 15.2521 7.23738 15.3435C7.20042 15.4348 7.18182 15.5326 7.18263 15.6311C7.18344 15.7297 7.20366 15.8271 7.24212 15.9178C7.28058 16.0086 7.33654 16.0908 7.4068 16.1599C9.30617 18.0231 11.5412 19.2349 11.6355 19.2849C11.745 19.3436 11.8673 19.3743 11.9915 19.3743C12.1157 19.3743 12.2379 19.3436 12.3474 19.2849C12.6249 19.1337 19.2499 15.5212 19.2499 10.9999C19.2479 9.90556 18.8119 8.85665 18.0376 8.08333C17.2632 7.31001 16.2137 6.87544 15.1193 6.87494Z" fill="#0C0C0C"/>
</svg>
