<svg width="21" height="21" viewBox="0 0 21 21" fill="none" xmlns="http://www.w3.org/2000/svg">
<path d="M18.0916 10.0262V17.5262C18.0916 17.6919 18.0257 17.8509 17.9085 17.9681C17.7913 18.0853 17.6323 18.1512 17.4666 18.1512H13.0916C12.9258 18.1512 12.7668 18.0853 12.6496 17.9681C12.5324 17.8509 12.4666 17.6919 12.4666 17.5262V13.4637C12.4666 13.3808 12.4336 13.3013 12.375 13.2427C12.3164 13.1841 12.2369 13.1512 12.1541 13.1512H9.02905C8.94617 13.1512 8.86669 13.1841 8.80808 13.2427C8.74948 13.3013 8.71655 13.3808 8.71655 13.4637V17.5262C8.71655 17.6919 8.6507 17.8509 8.53349 17.9681C8.41628 18.0853 8.25731 18.1512 8.09155 18.1512H3.71655C3.55079 18.1512 3.39182 18.0853 3.27461 17.9681C3.1574 17.8509 3.09155 17.6919 3.09155 17.5262V10.0262C3.09171 9.69469 3.2235 9.37686 3.45796 9.14256L9.70796 2.89256C9.94236 2.65832 10.2602 2.52673 10.5916 2.52673C10.9229 2.52673 11.2407 2.65832 11.4751 2.89256L17.7251 9.14256C17.9596 9.37686 18.0914 9.69469 18.0916 10.0262Z" fill="#0C0C0C"/>
</svg>
