<svg width="21" height="21" viewBox="0 0 21 21" fill="none" xmlns="http://www.w3.org/2000/svg">
<path d="M8.34302 8.46368C8.34302 8.21504 8.44179 7.97659 8.6176 7.80077C8.79342 7.62496 9.03188 7.52618 9.28052 7.52618H11.7805C12.0292 7.52618 12.2676 7.62496 12.4434 7.80077C12.6192 7.97659 12.718 8.21504 12.718 8.46368C12.718 8.71232 12.6192 8.95078 12.4434 9.1266C12.2676 9.30241 12.0292 9.40118 11.7805 9.40118H9.28052C9.03188 9.40118 8.79342 9.30241 8.6176 9.1266C8.44179 8.95078 8.34302 8.71232 8.34302 8.46368ZM18.968 5.96368V15.9637C18.968 16.3781 18.8034 16.7755 18.5104 17.0685C18.2173 17.3616 17.8199 17.5262 17.4055 17.5262H3.65552C3.24112 17.5262 2.84369 17.3616 2.55066 17.0685C2.25764 16.7755 2.09302 16.3781 2.09302 15.9637V5.96368C2.09302 5.54928 2.25764 5.15186 2.55066 4.85883C2.84369 4.5658 3.24112 4.40118 3.65552 4.40118H6.46802V3.77618C6.46802 3.19602 6.69849 2.63962 7.10872 2.22939C7.51896 1.81915 8.07536 1.58868 8.65552 1.58868H12.4055C12.9857 1.58868 13.5421 1.81915 13.9523 2.22939C14.3625 2.63962 14.593 3.19602 14.593 3.77618V4.40118H17.4055C17.8199 4.40118 18.2173 4.5658 18.5104 4.85883C18.8034 5.15186 18.968 5.54928 18.968 5.96368ZM8.34302 4.40118H12.718V3.77618C12.718 3.6933 12.6851 3.61382 12.6265 3.55521C12.5679 3.49661 12.4884 3.46368 12.4055 3.46368H8.65552C8.57264 3.46368 8.49315 3.49661 8.43455 3.55521C8.37594 3.61382 8.34302 3.6933 8.34302 3.77618V4.40118ZM3.96802 6.27618V9.02853C5.9911 10.0948 8.24364 10.6518 10.5305 10.6512C12.8175 10.6517 15.0701 10.0945 17.093 9.02775V6.27618H3.96802ZM17.093 15.6512V11.1152C15.0303 12.0455 12.7933 12.5264 10.5305 12.5262C8.26771 12.5266 6.0307 12.0456 3.96802 11.1152V15.6512H17.093Z" fill="#0C0C0C" fill-opacity="0.6"/>
</svg>
