<svg width="48" height="49" viewBox="0 0 48 49" fill="none" xmlns="http://www.w3.org/2000/svg">
<g clip-path="url(#clip0_388_1794)">
<path d="M1.0243 23.898C1.02318 27.9624 2.08518 31.931 4.10455 35.429L0.831177 47.3807L13.0622 44.1737C16.4451 46.0153 20.2354 46.9802 24.0872 46.9805H24.0973C36.8126 46.9805 47.1632 36.6337 47.1686 23.9162C47.1711 17.7536 44.7733 11.9587 40.4169 7.59897C36.0613 3.23959 30.2685 0.837529 24.0964 0.834717C11.3796 0.834717 1.02974 11.181 1.02449 23.898" fill="url(#paint0_linear_388_1794)"/>
<path d="M0.200625 23.8905C0.199313 28.1012 1.29937 32.2118 3.39075 35.835L0 48.2151L12.6696 44.8931C16.1604 46.7964 20.0908 47.7999 24.0902 47.8014H24.1005C37.272 47.8014 47.9944 37.0824 48 23.9096C48.0023 17.5256 45.5182 11.5224 41.0062 7.0065C36.4937 2.49112 30.4937 0.002625 24.1005 0C10.9267 0 0.205875 10.7175 0.200625 23.8905ZM7.74581 35.211L7.27275 34.4601C5.28412 31.2981 4.2345 27.6441 4.236 23.892C4.24012 12.9429 13.1509 4.035 24.108 4.035C29.4143 4.03725 34.401 6.10575 38.1517 9.85875C41.9023 13.6121 43.9661 18.6015 43.9648 23.9081C43.9599 34.8572 35.049 43.7663 24.1005 43.7663H24.0926C20.5277 43.7644 17.0314 42.807 13.9823 40.9978L13.2566 40.5675L5.73825 42.5387L7.74581 35.211Z" fill="url(#paint1_linear_388_1794)"/>
<path d="M18.1271 13.9028C17.6797 12.9085 17.2089 12.8884 16.7835 12.8709C16.4351 12.8559 16.0369 12.8571 15.639 12.8571C15.2407 12.8571 14.5937 13.0069 14.0467 13.6041C13.4992 14.2018 11.9565 15.6463 11.9565 18.5843C11.9565 21.5222 14.0964 24.3617 14.3947 24.7605C14.6934 25.1586 18.5259 31.3806 24.5957 33.7742C29.6402 35.7634 30.6667 35.3678 31.7615 35.268C32.8565 35.1686 35.2948 33.8239 35.7922 32.4294C36.29 31.0352 36.29 29.8401 36.1408 29.5903C35.9915 29.3415 35.5933 29.1921 34.9961 28.8936C34.3989 28.5951 31.4629 27.1502 30.9155 26.9509C30.368 26.7518 29.97 26.6524 29.5717 27.2503C29.1735 27.8473 28.0299 29.1921 27.6814 29.5903C27.3332 29.9895 26.9846 30.0392 26.3876 29.7405C25.79 29.4409 23.8669 28.8111 21.5852 26.7769C19.8099 25.194 18.6114 23.2393 18.263 22.6414C17.9147 22.0444 18.2257 21.7208 18.5252 21.4232C18.7935 21.1556 19.1225 20.7259 19.4214 20.3773C19.7192 20.0286 19.8185 19.7798 20.0177 19.3815C20.217 18.9829 20.1172 18.6341 19.9682 18.3355C19.8185 18.0368 18.6581 15.0835 18.1271 13.9028Z" fill="white"/>
</g>
<defs>
<linearGradient id="paint0_linear_388_1794" x1="2317.7" y1="4655.43" x2="2317.7" y2="0.834717" gradientUnits="userSpaceOnUse">
<stop stop-color="#1FAF38"/>
<stop offset="1" stop-color="#60D669"/>
</linearGradient>
<linearGradient id="paint1_linear_388_1794" x1="2400" y1="4821.51" x2="2400" y2="0" gradientUnits="userSpaceOnUse">
<stop stop-color="#F9F9F9"/>
<stop offset="1" stop-color="white"/>
</linearGradient>
<clipPath id="clip0_388_1794">
<rect width="48" height="48.375" fill="white"/>
</clipPath>
</defs>
</svg>
