<svg width="21" height="21" viewBox="0 0 21 21" fill="none" xmlns="http://www.w3.org/2000/svg">
<g clip-path="url(#clip0_20_870)">
<path d="M7.65698 9.08868C7.65698 8.84004 7.75575 8.60159 7.93157 8.42577C8.10739 8.24996 8.34584 8.15118 8.59448 8.15118H14.2195C14.4681 8.15118 14.7066 8.24996 14.8824 8.42577C15.0582 8.60159 15.157 8.84004 15.157 9.08868C15.157 9.33732 15.0582 9.57578 14.8824 9.7516C14.7066 9.92741 14.4681 10.0262 14.2195 10.0262H8.59448C8.34584 10.0262 8.10739 9.92741 7.93157 9.7516C7.75575 9.57578 7.65698 9.33732 7.65698 9.08868ZM8.59448 13.1512H14.2195C14.4681 13.1512 14.7066 13.0524 14.8824 12.8766C15.0582 12.7008 15.157 12.4623 15.157 12.2137C15.157 11.965 15.0582 11.7266 14.8824 11.5508C14.7066 11.375 14.4681 11.2762 14.2195 11.2762H8.59448C8.34584 11.2762 8.10739 11.375 7.93157 11.5508C7.75575 11.7266 7.65698 11.965 7.65698 12.2137C7.65698 12.4623 7.75575 12.7008 7.93157 12.8766C8.10739 13.0524 8.34584 13.1512 8.59448 13.1512ZM18.907 5.65118V15.0262C18.907 15.3135 18.8504 15.5979 18.7405 15.8633C18.6305 16.1287 18.4694 16.3699 18.2663 16.573C18.0632 16.7761 17.822 16.9372 17.5566 17.0472C17.2912 17.1571 17.0067 17.2137 16.7195 17.2137H3.28198C2.61894 17.2137 1.98306 16.9503 1.51422 16.4815C1.04537 16.0126 0.781982 15.3767 0.781982 14.7137V7.52618C0.781982 7.27754 0.880754 7.03909 1.05657 6.86327C1.23239 6.68746 1.47084 6.58868 1.71948 6.58868C1.96812 6.58868 2.20658 6.68746 2.3824 6.86327C2.55821 7.03909 2.65698 7.27754 2.65698 7.52618V14.7137C2.65698 14.8794 2.72283 15.0384 2.84004 15.1556C2.95725 15.2728 3.11622 15.3387 3.28198 15.3387C3.44774 15.3387 3.60671 15.2728 3.72392 15.1556C3.84113 15.0384 3.90698 14.8794 3.90698 14.7137V5.65118C3.90698 5.23678 4.0716 4.83936 4.36463 4.54633C4.65765 4.2533 5.05508 4.08868 5.46948 4.08868H17.3445C17.7589 4.08868 18.1563 4.2533 18.4493 4.54633C18.7424 4.83936 18.907 5.23678 18.907 5.65118ZM17.032 5.96368H5.78198V14.7137C5.78239 14.9245 5.75614 15.1345 5.70386 15.3387H16.7195C16.8024 15.3387 16.8818 15.3058 16.9405 15.2472C16.9991 15.1885 17.032 15.1091 17.032 15.0262V5.96368Z" fill="#0C0C0C" fill-opacity="0.6"/>
</g>
<defs>
<clipPath id="clip0_20_870">
<rect width="20" height="20" fill="white" transform="translate(0.469482 0.651184)"/>
</clipPath>
</defs>
</svg>
